Coordinates
version=1
nRows=49
nColumns=12
inDegrees=yes

Units are S.I. units (second, meters, Newtons, ...)
Angles are in degrees

endheader
time	SC_y	SC_z	SC_x	AC_y	AC_z	AC_x	GH_y	GH_z	GH_yy	EL_x	PS_y
       0.0              -58.76          33.45          56.86          44.01          6.972          17.04         -163.5          33.05         -63.13          73.32          157.4
   0.01224              -58.75          33.44          56.86          44.01           6.97          17.03         -163.5          33.06         -63.11          73.32          157.4
   0.02447              -58.74          33.44          56.86          44.01          6.967          17.03         -163.4          33.07         -63.09          73.32          157.4
   0.03671              -58.74          33.44          56.85          44.02          6.965          17.03         -163.4          33.07         -63.06          73.32          157.4
   0.04895              -58.73          33.44          56.85          44.02          6.962          17.03         -163.4          33.08         -63.03          73.32          157.4
   0.06119              -58.72          33.44          56.85          44.02          6.959          17.03         -163.3          33.09          -63.0          73.31          157.4
   0.07342              -58.71          33.44          56.85          44.02          6.956          17.02         -163.3          33.09         -62.97          73.31          157.4
   0.08566               -58.7          33.44          56.84          44.02          6.953          17.02         -163.3           33.1         -62.94          73.31          157.3
    0.0979              -58.69          33.44          56.84          44.02           6.95          17.02         -163.2          33.11          -62.9          73.31          157.3
    0.1101              -58.68          33.43          56.84          44.02          6.946          17.02         -163.2          33.12         -62.86           73.3          157.3
    0.1224              -58.67          33.43          56.83          44.03          6.942          17.01         -163.1          33.13         -62.82           73.3          157.3
    0.1346              -58.66          33.43          56.83          44.03          6.938          17.01         -163.1          33.14         -62.78           73.3          157.3
    0.1468              -58.65          33.43          56.83          44.03          6.933          17.01         -163.0          33.15         -62.73          73.29          157.2
    0.1591              -58.64          33.43          56.82          44.03          6.928           17.0         -163.0          33.17         -62.68          73.29          157.2
    0.1713              -58.62          33.42          56.82          44.03          6.923           17.0         -162.9          33.18         -62.62          73.29          157.2
    0.1836               -58.6          33.42          56.81          44.04          6.917          16.99         -162.8          33.19         -62.56          73.28          157.2
    0.1958              -58.59          33.42          56.81          44.04           6.91          16.99         -162.8          33.21         -62.49          73.28          157.1
     0.208              -58.57          33.42           56.8          44.04          6.903          16.98         -162.7          33.23         -62.42          73.27          157.1
    0.2203              -58.55          33.41           56.8          44.05          6.896          16.98         -162.6          33.25         -62.34          73.27          157.1
    0.2325              -58.52          33.41          56.79          44.05          6.888          16.97         -162.5          33.27         -62.26          73.26          157.0
    0.2447               -58.5           33.4          56.78          44.05          6.879          16.96         -162.4          33.29         -62.16          73.25          157.0
     0.257              -58.47           33.4          56.77          44.06          6.868          16.96         -162.3          33.32         -62.06          73.24          156.9
    0.2692              -58.44           33.4          56.77          44.06          6.857          16.95         -162.1          33.35         -61.94          73.24          156.9
    0.2815              -58.41          33.39          56.76          44.07          6.845          16.94         -162.0          33.38         -61.81          73.23          156.8
    0.2937              -58.37          33.38          56.74          44.08          6.832          16.93         -161.8          33.41         -61.67          73.22          156.7
    0.3059              -58.33          33.38          56.73          44.08          6.816          16.92         -161.7          33.45         -61.51           73.2          156.7
    0.3182              -58.28          33.37          56.72          44.09          6.799           16.9         -161.4          33.49         -61.33          73.19          156.6
    0.3304              -58.23          33.36           56.7           44.1           6.78          16.89         -161.2          33.54         -61.13          73.18          156.5
    0.3426              -58.17          33.35          56.68          44.11          6.759          16.87         -161.0           33.6         -60.91          73.16          156.4
    0.3549               -58.1          33.34          56.66          44.12          6.734          16.85         -160.7          33.66         -60.65          73.14          156.2
    0.3671              -58.03          33.33          56.64          44.13          6.706          16.83         -160.3          33.73         -60.36          73.12          156.1
    0.3794              -57.94          33.31          56.62          44.15          6.674          16.81         -160.0          33.81         -60.02          73.09          155.9
    0.3916              -57.84           33.3          56.59          44.17          6.637          16.78         -159.5          33.91         -59.64          73.06          155.8
    0.4038              -57.72          33.28          56.55          44.19          6.593          16.74         -159.0          34.02         -59.19          73.03          155.5
    0.4161              -57.58          33.26          56.51          44.21          6.543           16.7         -158.4          34.15         -58.66          72.99          155.3
    0.4283              -57.41          33.23          56.46          44.24          6.483          16.66         -157.7           34.3         -58.04          72.95          155.0
    0.4405              -57.22           33.2           56.4          44.27          6.413           16.6         -156.9          34.48          -57.3          72.89          154.6
    0.4528              -56.99          33.16          56.33          44.31          6.328          16.54         -155.9          34.69         -56.41          72.82          154.2
     0.465              -56.71          33.12          56.25          44.35          6.225          16.46         -154.6          34.95         -55.34          72.74          153.7
    0.4773              -56.36          33.06          56.15          44.41            6.1          16.36         -153.1          35.27         -54.03          72.65          153.0
    0.4895              -55.94          32.99          56.02          44.48          5.945          16.24         -151.3          35.67         -52.42          72.53          152.3
    0.5017              -55.41          32.91          55.86          44.57          5.752          16.09         -149.0          36.16          -50.4          72.38          151.3
     0.514              -54.74           32.8          55.66          44.68          5.509           15.9         -146.1          36.78         -47.87          72.19          150.1
    0.5262              -53.89          32.67          55.41          44.82            5.2          15.67         -142.5          37.56         -44.64          71.95          148.5
    0.5384              -52.81          32.49          55.09           45.0          4.805          15.36         -137.8          38.57         -40.51          71.64          146.5
    0.5507              -51.41          32.27          54.67          45.24          4.298          14.97         -131.7          39.86         -35.21          71.25          144.0
    0.5629              -49.63          31.99          54.14          45.53          3.649          14.47         -124.0          41.51         -28.45          70.74          140.7
    0.5752               -47.4          31.63          53.48           45.9          2.834          13.83         -114.4          43.58         -19.94          70.11          136.6
    0.5874              -44.67          31.19          52.66          46.36          1.841          13.07         -102.6          46.11         -9.569          69.34          131.6
